<?xml version="1.0" encoding="UTF-8" standalone="no"?>
<svg
   width="3148"
   height="3148"
   viewBox="0 0 3148 3148"
   version="1.1"
   xml:space="preserve"
   style="clip-rule:evenodd;fill-rule:evenodd;stroke-linejoin:round;stroke-miterlimit:2"
   id="svg7"
   sodipodi:docname="ship-cut-tail.svg"
   inkscape:version="1.3.2 (091e20e, 2023-11-25, custom)"
   xmlns:inkscape="http://www.inkscape.org/namespaces/inkscape"
   xmlns:sodipodi="http://sodipodi.sourceforge.net/DTD/sodipodi-0.dtd"
   xmlns="http://www.w3.org/2000/svg"
   xmlns:svg="http://www.w3.org/2000/svg"
   xmlns:serif="http://www.serif.com/"><defs
   id="defs7"><clipPath
     clipPathUnits="userSpaceOnUse"
     id="clipPath12"><rect
       style="fill:#00ffff;stroke-width:0.297266"
       id="rect13"
       width="815.44745"
       height="792.5946"
       x="12158.161"
       y="575.34772"
       transform="matrix(0.74646138,0.66542873,-0.71709909,0.69697123,0,0)" /></clipPath><clipPath
     clipPathUnits="userSpaceOnUse"
     id="clipPath14"><rect
       style="fill:#00ffff;stroke-width:0.297266"
       id="rect15"
       width="832.89014"
       height="794.68591"
       x="12149.439"
       y="571.16516"
       transform="matrix(0.74646138,0.66542873,-0.71709909,0.69697123,0,0)" /></clipPath></defs><sodipodi:namedview
   id="namedview7"
   pagecolor="#ffffff"
   bordercolor="#000000"
   borderopacity="0.25"
   inkscape:showpageshadow="2"
   inkscape:pageopacity="0.0"
   inkscape:pagecheckerboard="0"
   inkscape:deskcolor="#d1d1d1"
   inkscape:zoom="0.13921233"
   inkscape:cx="-1605.4612"
   inkscape:cy="2485.412"
   inkscape:window-width="1918"
   inkscape:window-height="1000"
   inkscape:window-x="0"
   inkscape:window-y="0"
   inkscape:window-maximized="0"
   inkscape:current-layer="g11" />
    <g
   transform="translate(-9154,-9611)"
   id="g7">
        <g
   id="Transparent-backgrounds"
   serif:id="Transparent backgrounds"
   transform="matrix(0.99263,0,0,5.57362,2915.66,-87126.8)">
            <rect
   x="4579.25"
   y="15632"
   width="6649"
   height="2153"
   style="fill:none"
   id="rect1" />
            <g
   transform="matrix(1.89356,-0.0594633,0.333886,0.337233,4861.5,17024)"
   id="g3">
                <g
   transform="matrix(1.2248,0,0,1.2248,-28694.3,485.489)"
   id="g1">
                    
                </g>
                
            </g>
        </g>
        <g
   id="Transparent-backgrounds1"
   serif:id="Transparent backgrounds"
   transform="matrix(1.3707491,-0.19715719,1.4756433,8.3110582,-26142.521,-133979.83)">
            <rect
   x="4579.25"
   y="15632"
   width="6649"
   height="2153"
   style="fill:none"
   id="rect3" />
            <g
   transform="matrix(1.6361742,-0.17688692,1.0228588,0.291836,4150.0982,17347.01)"
   id="g6">
                
                <g
   id="g9"
   transform="matrix(0.94497374,0.0068272,0.00959113,0.94266822,93.819578,84.973737)"><g
     id="g10"><g
       transform="matrix(1.2826678,-0.06641799,0.06343213,1.2876028,-10581.357,-9280.334)"
       id="g5">
                    <g
   id="g11"><g
     id="g8"
     transform="matrix(1.2723421,0.00218381,0.00252045,1.2721393,6535.2021,6934.9303)"
     style="clip-rule:evenodd;fill-rule:evenodd;stroke-linejoin:round;stroke-miterlimit:2"><g
       transform="matrix(1.2248,0,0,1.2248,-28694.3,485.489)"
       id="g4">
                    <path
   d="m 24899.7,1025.07 v 23.09 l 91,12.53 -1.4,34.16 c -65.8,18.93 -135.7,25.43 -197.2,-27.02 v -34.51 l 37.4,5.16 v -23.22 l -37.4,-5.22 v -59.167 l 1.2,-0.099 -1.2,-0.098 v -59.164 l 37.4,-5.224 V 863.07 l -37.4,5.157 v -34.508 c 61.5,-52.448 131.4,-45.952 197.2,-27.022 l 1.4,34.16 -91,12.533 v 23.091 l 33.2,-4.634 V 1029.7 Z m 55.9,-141.607 c 113.6,-12.824 184.6,28.937 184.6,28.937 v 76.748 c 0,0 -71,41.762 -184.6,28.942 z m -77.3,48.447 c 10.5,10.438 10.5,27.388 0,37.827 l 9.9,9.839 c 15.8,-15.869 15.8,-41.636 0,-57.505 z m -4.3,18.913 c 0,12.619 -10.2,22.863 -22.8,22.863 -12.7,0 -22.9,-10.244 -22.9,-22.863 0,-12.618 10.2,-22.862 22.9,-22.862 12.6,0 22.8,10.244 22.8,22.862 z"
   style="fill:#ffee83"
   id="path3" />
                </g></g><g
     inkscape:label="Clip"
     id="use12"><path
       d="m 8445.7232,8991.1956 -186.9673,-107.7839 360.4251,106.1808 c 0,0 0.1899,95.824 0.1899,95.824 0,0 -360.0068,104.9441 -360.0068,104.9441 l 186.5414,-107.1428 -1299.5024,-48.2413 z"
       style="fill:#d50078;stroke-width:1.55824"
       id="path13"
       clip-path="url(#clipPath14)" /></g></g>
                </g></g></g>
            </g>
        </g>
    </g>
</svg>
